<?xml version="1.0" standalone="no"?>
<!DOCTYPE svg PUBLIC "-//W3C//DTD SVG 1.1//EN" "http://www.w3.org/Graphics/SVG/1.1/DTD/svg11.dtd" >
<!--
2013-9-30: Created.
-->
<svg>
<metadata>
Created by iconfont
</metadata>
<defs>

<font id="iconfont" horiz-adv-x="1024" >
  <font-face
    font-family="iconfont"
    font-weight="500"
    font-stretch="normal"
    units-per-em="1024"
    ascent="896"
    descent="-128"
  />
    <missing-glyph />
    
    <glyph glyph-name="buy" unicode="&#58906;" d="M30.117647 865.882353m120.470588 0l722.82353 0q120.470588 0 120.470588-120.470588l0-722.82353q0-120.470588-120.470588-120.470588l-722.82353 0q-120.470588 0-120.470588 120.470588l0 722.82353q0 120.470588 120.470588 120.470588ZM210.823529 685.176471h602.352942v-60.235295h-602.352942zM210.823529 504.470588h602.352942v-60.235294h-602.352942zM210.823529 323.764706h602.352942v-60.235294h-602.352942zM210.823529 143.058824h602.352942v-60.235295h-602.352942z"  horiz-adv-x="1024" />

    
    <glyph glyph-name="buyandsale" unicode="&#58907;" d="M30.117647 865.882353m120.470588 0l722.82353 0q120.470588 0 120.470588-120.470588l0-722.82353q0-120.470588-120.470588-120.470588l-722.82353 0q-120.470588 0-120.470588 120.470588l0 722.82353q0 120.470588 120.470588 120.470588ZM210.823529 685.176471h602.352942v-60.235295h-602.352942zM210.823529 504.470588h602.352942v-60.235294h-602.352942zM210.823529 323.764706h602.352942v-60.235294h-602.352942zM210.823529 143.058824h602.352942v-60.235295h-602.352942z"  horiz-adv-x="1024" />

    
    <glyph glyph-name="buyandsale1" unicode="&#58908;" d="M30.117647 865.882353m120.470588 0l722.82353 0q120.470588 0 120.470588-120.470588l0-722.82353q0-120.470588-120.470588-120.470588l-722.82353 0q-120.470588 0-120.470588 120.470588l0 722.82353q0 120.470588 120.470588 120.470588ZM210.823529 685.176471h602.352942v-60.235295h-602.352942zM210.823529 504.470588h602.352942v-60.235294h-602.352942zM210.823529 323.764706h602.352942v-60.235294h-602.352942zM210.823529 143.058824h602.352942v-60.235295h-602.352942z"  horiz-adv-x="1024" />

    
    <glyph glyph-name="buy1" unicode="&#58909;" d="M30.117647 865.882353m120.470588 0l722.82353 0q120.470588 0 120.470588-120.470588l0-722.82353q0-120.470588-120.470588-120.470588l-722.82353 0q-120.470588 0-120.470588 120.470588l0 722.82353q0 120.470588 120.470588 120.470588ZM210.823529 685.176471h602.352942v-60.235295h-602.352942zM210.823529 504.470588h602.352942v-60.235294h-602.352942zM210.823529 323.764706h602.352942v-60.235294h-602.352942zM210.823529 143.058824h602.352942v-60.235295h-602.352942z"  horiz-adv-x="1024" />

    
    <glyph glyph-name="sale" unicode="&#58910;" d="M30.117647 865.882353m120.470588 0l722.82353 0q120.470588 0 120.470588-120.470588l0-722.82353q0-120.470588-120.470588-120.470588l-722.82353 0q-120.470588 0-120.470588 120.470588l0 722.82353q0 120.470588 120.470588 120.470588ZM210.823529 685.176471h602.352942v-60.235295h-602.352942zM210.823529 504.470588h602.352942v-60.235294h-602.352942zM210.823529 323.764706h602.352942v-60.235294h-602.352942zM210.823529 143.058824h602.352942v-60.235295h-602.352942z"  horiz-adv-x="1024" />

    
    <glyph glyph-name="sale1" unicode="&#58911;" d="M30.117647 865.882353m120.470588 0l722.82353 0q120.470588 0 120.470588-120.470588l0-722.82353q0-120.470588-120.470588-120.470588l-722.82353 0q-120.470588 0-120.470588 120.470588l0 722.82353q0 120.470588 120.470588 120.470588ZM210.823529 685.176471h602.352942v-60.235295h-602.352942zM210.823529 504.470588h602.352942v-60.235294h-602.352942zM210.823529 323.764706h602.352942v-60.235294h-602.352942zM210.823529 143.058824h602.352942v-60.235295h-602.352942z"  horiz-adv-x="1024" />

    
    <glyph glyph-name="qiehuan" unicode="&#58905;" d="M918.429 568l13.856-24c8.837-15.305 3.594-34.876-11.711-43.712A32 32 0 0 0 904.573 496H72a8 8 0 0 0-8 8v56a8 8 0 0 0 8 8h763.289l-106.24 184.003a16 16 0 0 0 0 16l30.023 51.998a8 8 0 0 0 13.856 0L918.428 568zM105.57 200l-13.856 24c-8.837 15.305-3.594 34.876 11.711 43.712A32 32 0 0 0 119.427 272H952a8 8 0 0 0 8-8v-56a8 8 0 0 0-8-8H188.711l106.24-184.003a16 16 0 0 0 0-16l-30.023-51.998a8 8 0 0 0-13.856 0L105.572 200z"  horiz-adv-x="1024" />

    
    <glyph glyph-name="icon-test6" unicode="&#58904;" d="M323.6 800.7v19C323.6 862.6 357 896 395.1 896h476.7c38.1 0 71.5-33.4 71.5-76.3v-591.1c0-42.9-33.4-76.3-71.5-76.3h-47.7c-13.2 0-23.8 10.7-23.8 23.8V657.6c0 47.7-42.9 90.6-95.3 90.6H347.4c-13.2 0-23.8 10.7-23.8 23.8V800.7zM222.5 419.3h333.7c13.2 0 23.8 10.7 23.8 23.8 0 13.2-10.7 23.8-23.8 23.8H222.5c-13.2 0-23.8-10.7-23.8-23.8 0-13.2 10.7-23.8 23.8-23.8z m0-333.7h333.7c13.2 0 23.8 10.7 23.8 23.8 0 13.2-10.7 23.8-23.8 23.8H222.5c-13.2 0-23.8-10.7-23.8-23.8 0-13.2 10.7-23.8 23.8-23.8z m0 166.8h333.7c13.2 0 23.8 10.7 23.8 23.8 0 13.2-10.7 23.8-23.8 23.8H222.5c-13.2 0-23.8-10.7-23.8-23.8 0-13.1 10.7-23.8 23.8-23.8zM151 684.3h476.7c52.4 0 95.3-42.9 95.3-95.3v-621.6c0-52.4-42.9-95.3-95.3-95.3H174.9c-52.4 0-95.3 42.9-95.3 95.3V612.8c-0.1 38.2 33.3 71.5 71.4 71.5z m0 0"  horiz-adv-x="1024" />

    
    <glyph glyph-name="icon-test" unicode="&#58898;" d="M1024-128H171.7C76.9-127.8 0.2-51.1 0 43.6V724.4C0.2 819.1 76.9 895.8 171.7 896h681.7v-682.7H172.6c-48.4-0.2-87.6-39.4-87.7-87.8v-81c0.1-48.4 39.3-87.6 87.7-87.7h765.6V811.2h85.8V-128zM853.4 127.5v-85.8H170.7v85.8h682.7z m0 0"  horiz-adv-x="1024" />

    
    <glyph glyph-name="icon-test1" unicode="&#58899;" d="M874 745.9C777.3 842.5 648.8 895.7 512 895.7 375.3 895.7 246.7 842.5 150 745.9 53.3 649.3 0 520.7 0 384s53.3-265.3 150-361.9c96.8-96.6 225.2-149.8 362-149.8 136.7 0 265.3 53.1 362 149.8 96.6 96.7 150 225.2 150 362 0 136.7-53.2 265.2-150 361.8zM746.8 322.4H575.2v-171.6c0-31.4-25.4-56.9-56.8-56.9-31.5 0-56.9 25.5-56.9 56.9V322.4H289.9c-31.4 0-56.9 25.5-56.9 56.9s25.5 56.9 56.9 56.9h171.5V607.7c0 31.4 25.4 56.9 56.9 56.9 31.4 0 56.8-25.5 56.8-56.9v-171.5h171.5c31.5 0 56.9-25.5 56.9-56.9 0.2-31.5-25.3-56.9-56.7-56.9z"  horiz-adv-x="1024" />

    
    <glyph glyph-name="icon-test2" unicode="&#58900;" d="M1024 195V699.1C1024 807.8 935.8 896 827 896H196.9C88.2 896 0 807.8 0 699.1v-630.2C0-39.7 88.2-128 196.9-128h630.2c96.9 0 177.4 70 193.8 162.1-52.2 22.6-278.5 120.3-396.4 176.6C534.8 102 440.8 36.9 299.2 36.9c-141.6 0-236.2 87.2-224.9 194 7.5 70.1 55.5 184.7 264.4 165 110-10.3 160.4-30.9 250.1-60.5 23.2 42.5 42.5 89.4 57.1 139.2H248.1V514H445v70.8H204.8v43.4h240.1V730.4s2.2 16 19.9 16h98.5v-118.2h255.9v-43.4H563.3V514h208.8c-19.2-78.1-48.4-149.9-84.8-212.6C747.9 279.4 1024 195 1024 195z m-740.5-90.5c-149.6 0-173.3 94.5-165.3 134 7.8 39.3 51.2 90.6 134.4 90.6 95.6 0 181.2-24.5 284-74.5-72.2-94.2-160.9-150.1-253.1-150.1z m0 0"  horiz-adv-x="1024" />

    
    <glyph glyph-name="icon-test3" unicode="&#58901;" d="M609-128H415c-184 0-329.3 0-329.3 100.4v20.1c0 188.2 147.8 341.3 329.3 341.3h194c181.5 0 329.3-153.1 329.3-341.3v-20.1C938.2-128 785.7-128 609-128zM502.3 353.9C358.2 353.9 241 475.5 241 625 241 774.5 358.2 896 502.3 896c144.2 0 261.4-121.6 261.4-271 0-149.5-117.3-271.1-261.4-271.1z m0 0"  horiz-adv-x="1024" />

    
    <glyph glyph-name="icon-test4" unicode="&#58902;" d="M0 67.1c0-66.7 46.9-120.8 104.8-120.8h814.5c57.8 0 104.7 54.1 104.7 120.8v387H0.1l-0.1-387zM919.3 821.7H104.8C47 821.7 0 767.6 0 700.9V600h1024V700.9c0 66.7-46.9 120.8-104.7 120.8z m0 0"  horiz-adv-x="1024" />

    
    <glyph glyph-name="icon-test5" unicode="&#58903;" d="M938.968728 593.522154c0 35.397407-16.698777 66.8951-46.496595 84.593804l-335.975392 204.585016c-27.797964 17.698704-63.095379 17.698704-90.893343 0L131.427874 674.216244C101.730049 658.417401 85.031272 625.019847 85.031272 591.522301v-415.0696c0-35.397407 16.698777-66.8951 46.396602-84.593804l337.875253-206.584869c27.797964-17.698704 63.095379-17.698704 90.893343 0l334.175524 208.48473c27.897957 17.698704 44.596734 49.196397 44.596734 84.593804V593.522154zM610.292801 302.443473c-31.497693-49.196397-77.894295-82.593951-131.790348-92.493225-12.999048-1.999854-25.898103-3.899714-38.897151-3.899715-76.194419 0-146.689256 45.296682-181.986671 117.991358-35.197422 72.794668-31.497693 159.288333 11.19918 228.183288 7.399458 9.799282 18.598638 15.69885 29.697825 15.69885 11.099187 0 22.298367-7.899421 27.797964-19.698557 5.59959-11.799136 3.699729-23.598272-1.899861-35.397408-31.597686-51.19625-33.397554-116.091497-1.799868-167.187754 31.597686-51.19625 89.093475-76.694383 144.789395-64.895247 37.097283 7.899421 70.594829 29.49784 90.893343 62.895393 9.299319 15.798843 29.697825 19.698557 46.496595 9.799282 12.999048-13.698997 16.598784-35.297415 5.499597-50.996265z m131.790347-108.292068c-5.499597-9.799282-16.698777-13.798989-25.898103-13.798989-7.499451 0-12.999048 1.999854-18.598638 5.899567-14.798916 11.799136-18.598638 33.397554-7.49945 49.196397 46.496594 66.8951 31.597686 161.288187-31.497694 210.484584-63.095379 49.196397-152.188853 33.397554-198.585455-33.497547-11.099187-15.69885-31.497693-19.698557-46.396601-7.899421s-18.598638 33.497547-7.399459 49.196397C474.802724 548.125479 601.093475 567.824036 691.986817 497.029221c90.993335-70.694822 113.291702-204.485023 50.096331-302.877816z m0 0"  horiz-adv-x="1024" />

    
    <glyph glyph-name="home_market_down" unicode="&#58894;" d="M918.8 582.7l-342.6 292C542 903.1 482 903.1 447.8 874.7l-342.6-292 120.9-102.9 196.7 167.1V-128h178.4V646.9L798 479.8l120.8 102.9z"  horiz-adv-x="1024" />

    
    <glyph glyph-name="treaty_down" unicode="&#58895;" d="M107.6 693.7L0 585.4l514.6-511.1L1024 580.4 916.4 688.7 514.6 289.5z"  horiz-adv-x="1024" />

    
    <glyph glyph-name="home_market_up" unicode="&#58896;" d="M918.9 185.3l-342.6-291.9c-34.2-28.5-94.3-28.5-128.4 0L105.1 185.3l121 102.9 196.7-167.1V896h178.4v-774.9L798 288.2l120.9-102.9z"  horiz-adv-x="1024" />

    
    <glyph glyph-name="treaty_up" unicode="&#58897;" d="M107.6 74.3L0 182.6l514.6 511.1L1024 187.6 916.4 79.3 514.6 478.5z"  horiz-adv-x="1024" />

    
    <glyph glyph-name="facebook1" unicode="&#58890;" d="M512-128c-69.1 0-136.2 13.5-199.3 40.2C251.7-62 197-25.1 150 22c-47 47-83.9 101.8-109.7 162.7C13.5 247.8 0 314.9 0 384s13.5 136.2 40.2 199.3C66 644.3 102.9 699 150 746c47 47 101.8 83.9 162.7 109.7C375.8 882.5 442.9 896 512 896s136.2-13.5 199.3-40.2C772.3 830 827 793.1 874 746c47-47 83.9-101.8 109.7-162.7 26.7-63.1 40.2-130.2 40.2-199.3s-13.5-136.2-40.2-199.3C958 123.7 921.1 69 874 22c-47-47-101.8-83.9-162.7-109.7-63.1-26.8-130.2-40.3-199.3-40.3z m0 996.3C244.9 868.3 27.7 651.1 27.7 384S244.9-100.3 512-100.3 996.3 116.9 996.3 384 779.1 868.3 512 868.3zM721.6 237.3c-5.6-14.6-13.2-26.9-25.6-39.2-11-11.3-24.4-19.9-39.2-25.6-14.1-5.4-30.2-9.1-53.7-10.3-1.8-0.1-3.5-0.1-5.2-0.2V332.4h57.5l8.7 66.4h-66.3V442c0 19.3 5.4 32.6 33.2 32.6h35.2v60.3c-17.1 1.8-34.2 2.7-51.5 2.6-51 0-86-31.1-86-88.3v-50.4h-57.6v-66.4h57.7V161h-65.6c-19.4 0.2-27.8 0.5-42.7 1.2-23.5 1.1-39.6 4.8-53.7 10.3-14.6 5.6-26.9 13.2-39.2 25.6-12.4 12.4-19.8 24.6-25.6 39.2-4.8 12.4-8.1 26.5-9.6 45.5V481.9c1.6 19 4.9 33.1 9.6 45.3 5.5 14.8 14.3 28.1 25.6 39.2 11.1 11.3 24.4 19.9 39.2 25.6 14.1 5.4 30.2 9.1 53.7 10.3 23.6 1.1 31.1 1.4 91.3 1.4s67.6-0.3 91.3-1.4c23.5-1.1 39.7-4.8 53.8-10.3 14.8-5.5 28.2-14.2 39.2-25.6 11.3-11.1 19.9-24.4 25.6-39.2 5.4-14 9.1-30.2 10.3-53.7 1.1-23.6 1.4-31.1 1.4-91.3s-0.3-67.6-1.4-91.3c-1.3-23.5-5-39.6-10.4-53.6zM511.7 603.7z"  horiz-adv-x="1024" />

    
    <glyph glyph-name="twitter1" unicode="&#58891;" d="M512-128c-69.1 0-136.2 13.5-199.3 40.2C251.7-62 197-25.1 150 22c-47 47-83.9 101.8-109.7 162.7C13.5 247.8 0 314.9 0 384s13.5 136.2 40.2 199.3C66 644.3 102.9 699 150 746c47 47 101.8 83.9 162.7 109.7C375.8 882.5 442.9 896 512 896s136.2-13.5 199.3-40.2C772.3 830 827 793.1 874 746c47-47 83.9-101.8 109.7-162.7 26.7-63.1 40.2-130.2 40.2-199.3s-13.5-136.2-40.2-199.3C958 123.7 921.1 69 874 22c-47-47-101.8-83.9-162.7-109.7-63.1-26.8-130.2-40.3-199.3-40.3z m0 996.3C244.9 868.3 27.7 651.1 27.7 384S244.9-100.3 512-100.3 996.3 116.9 996.3 384 779.1 868.3 512 868.3zM731.8 291c-1.1-23.5-4.9-39.7-10.3-53.7-5.6-14.6-13.2-26.9-25.6-39.2-11-11.3-24.4-19.9-39.2-25.6-14.1-5.4-30.2-9.1-53.7-10.3-23.6-1.1-31.1-1.4-91.3-1.4-60.1 0-67.6 0.3-91.3 1.4-23.5 1.1-39.6 4.8-53.7 10.3-14.6 5.6-26.9 13.2-39.2 25.6-12.4 12.4-19.8 24.6-25.6 39.2-5.4 14.1-9.1 30.2-10.3 53.7-1.1 23.6-1.4 31.1-1.4 91.3s0.3 67.7 1.4 91.4c1.1 23.5 4.8 39.7 10.3 53.7 5.5 14.8 14.3 28.1 25.6 39.2 11.1 11.3 24.4 19.9 39.2 25.6 14.1 5.4 30.2 9.1 53.7 10.3 23.6 1.1 31.1 1.4 91.3 1.4 60.1 0 67.6-0.3 91.3-1.4 23.5-1.1 39.7-4.8 53.8-10.3 14.8-5.5 28.2-14.2 39.2-25.6 11.3-11.1 19.9-24.4 25.6-39.2 5.4-14 9.1-30.2 10.3-53.7 1.1-23.6 1.4-31.1 1.4-91.3s-0.4-67.8-1.5-91.4zM635 488.8c-10.1-6.5-20.9-11.1-32.5-13.5-10.1 11.9-22.6 17.7-37.4 17.7-14.1 0-26.2-5.4-36.2-16.3-9.9-10.9-15-24-15-39.5 0-4.2 0.4-8.4 1.3-12.7-20.9 1.2-40.5 6.9-58.8 17.2-18.3 10.3-33.9 24-46.6 41.3-4.7-8.7-7-18-7-28.2 0-9.5 2-18.5 6.1-26.7s9.6-14.8 16.6-19.9c-8.3 0.4-16 2.7-23.2 7.1v-0.7c0-13.5 3.9-25.4 11.7-35.6 7.8-10.2 17.5-16.6 29.4-19.3-4.5-1.3-9-1.8-13.4-1.8-2.9 0-6.1 0.3-9.6 0.9 3.3-11.2 9.2-20.4 18-27.6 8.8-7.2 18.7-10.9 29.8-11.2-18.6-16-39.7-23.8-63.4-23.8-4.6 0-8.7 0.3-12.4 0.7 23.7-16.7 49.9-25.1 78.5-25.1 18.2 0 35.2 3.1 51.1 9.4 16 6.3 29.6 14.7 40.9 25.2 11.3 10.6 21 22.7 29.2 36.4s14.2 28 18.3 43c4 15 6 29.9 6 44.9 0 3.2-0.1 5.6-0.2 7.3 10 8 18.6 17.6 25.7 28.9-9.8-4.7-19.7-7.5-29.5-8.7 11.2 7 18.7 17.4 22.6 30.6zM511.7 603.7z"  horiz-adv-x="1024" />

    
    <glyph glyph-name="Instagram1" unicode="&#58892;" d="M512-128c-69.1 0-136.2 13.5-199.3 40.2C251.7-62 197-25.1 150 22c-47 47-83.9 101.8-109.7 162.7C13.5 247.8 0 314.9 0 384s13.5 136.2 40.2 199.3C66 644.3 102.9 699 150 746c47 47 101.8 83.9 162.7 109.7C375.8 882.5 442.9 896 512 896s136.2-13.5 199.3-40.2C772.3 830 827 793.1 874 746c47-47 83.9-101.8 109.7-162.7 26.7-63.1 40.2-130.2 40.2-199.3s-13.5-136.2-40.2-199.3C958 123.7 921.1 69 874 22c-47-47-101.8-83.9-162.7-109.7-63.1-26.8-130.2-40.3-199.3-40.3z m0 996.3C244.9 868.3 27.7 651.1 27.7 384S244.9-100.3 512-100.3 996.3 116.9 996.3 384 779.1 868.3 512 868.3zM511.7 603.7c-60.1 0-67.6-0.3-91.3-1.4-23.5-1.1-39.7-4.8-53.7-10.3-14.8-5.5-28.1-14.3-39.2-25.6-11.3-11.1-19.9-24.4-25.6-39.2-5.4-14-9.2-30.2-10.3-53.7-1.1-23.6-1.4-31.1-1.4-91.4 0-60.1 0.3-67.6 1.4-91.3 1.1-23.5 4.8-39.7 10.3-53.7 5.6-14.6 13.2-26.9 25.6-39.2 12.3-12.4 24.6-19.9 39.2-25.6 14.1-5.4 30.2-9.2 53.7-10.3 23.6-1.1 31.1-1.4 91.3-1.4 60.1 0 67.6 0.3 91.3 1.4 23.5 1.1 39.7 4.8 53.7 10.3 14.8 5.5 28.2 14.3 39.2 25.6 12.4 12.4 19.8 24.6 25.6 39.2 5.4 14.1 9.1 30.2 10.3 53.7 1.1 23.6 1.4 31.1 1.4 91.3 0 60.1-0.3 67.6-1.4 91.3-1.1 23.5-4.9 39.7-10.3 53.7-5.5 14.8-14.3 28.1-25.6 39.2-11 11.3-24.4 19.9-39.2 25.6-14.1 5.4-30.3 9.2-53.8 10.3-23.6 1.2-31.1 1.5-91.2 1.5zM629.9 527c14.7 0 26.6-11.9 26.6-26.6s-11.9-26.6-26.6-26.6c-14.7 0-26.6 11.9-26.6 26.6 0.1 14.7 12 26.6 26.6 26.6z m-118.1-31c62.8 0 113.6-50.9 113.6-113.6s-50.9-113.6-113.7-113.6-113.6 50.9-113.6 113.6S449 496 511.8 496z m0-39.9c-40.8 0-73.8-33.1-73.8-73.8 0-40.8 33.1-73.8 73.8-73.8s73.8 33.1 73.8 73.8-33 73.8-73.8 73.8z"  horiz-adv-x="1024" />

    
    <glyph glyph-name="telegram1" unicode="&#58893;" d="M512-128c-69.1 0-136.2 13.5-199.3 40.2C251.7-62 197-25.1 150 22c-47 47-83.9 101.8-109.7 162.7C13.5 247.8 0 314.9 0 384s13.5 136.2 40.2 199.3C66 644.3 102.9 699 150 746c47 47 101.8 83.9 162.7 109.7C375.8 882.5 442.9 896 512 896s136.2-13.5 199.3-40.2C772.3 830 827 793.1 874 746c47-47 83.9-101.8 109.7-162.7 26.7-63.1 40.2-130.2 40.2-199.3s-13.5-136.2-40.2-199.3C958 123.7 921.1 69 874 22c-47-47-101.8-83.9-162.7-109.7-63.1-26.8-130.2-40.3-199.3-40.3z m0 996.3C244.9 868.3 27.7 651.1 27.7 384S244.9-100.3 512-100.3 996.3 116.9 996.3 384 779.1 868.3 512 868.3zM731.8 291c-1.1-23.5-4.9-39.7-10.3-53.7-5.6-14.6-13.2-26.9-25.6-39.2-11-11.3-24.4-19.9-39.2-25.6-14.1-5.4-30.2-9.1-53.7-10.3-23.6-1.1-31.1-1.4-91.3-1.4-60.1 0-67.6 0.3-91.3 1.4-23.5 1.1-39.6 4.8-53.7 10.3-14.6 5.6-26.9 13.2-39.2 25.6-12.4 12.4-19.8 24.6-25.6 39.2-5.4 14.1-9.1 30.2-10.3 53.7-1.1 23.6-1.4 31.1-1.4 91.3s0.3 67.7 1.4 91.4c1.1 23.5 4.8 39.7 10.3 53.7 5.5 14.8 14.3 28.1 25.6 39.2 11.1 11.3 24.4 19.9 39.2 25.6 14.1 5.4 30.2 9.1 53.7 10.3 23.6 1.1 31.1 1.4 91.3 1.4 60.1 0 67.6-0.3 91.3-1.4 23.5-1.1 39.7-4.8 53.8-10.3 14.8-5.5 28.2-14.2 39.2-25.6 11.3-11.1 19.9-24.4 25.6-39.2 5.4-14 9.1-30.2 10.3-53.7 1.1-23.6 1.4-31.1 1.4-91.3s-0.4-67.8-1.5-91.4zM627.6 491.2l-233.2-90c-15.9-6.4-15.8-15.4-2.9-19l59.8-19 138.6 87.5c6.5 4 12.6 1.8 7.6-2.7L485.2 346.9l-4.1-61.8c5.9 0 8.8 2.8 12.1 6.2l29.1 28.2 60.5-44.7c11.1-6.1 19.2-2.9 22 10.4l39.7 187.1c4 16.3-6.2 23.8-16.9 18.9zM511.7 603.7z"  horiz-adv-x="1024" />

    
    <glyph glyph-name="top_hot" unicode="&#58889;" d="M1023.8 294.3c0-36.1-13.2-98.7-36.6-124.2-23.4-25.6-55.2-39.9-88.3-39.9L367.3 129l-150-64.6-25.3 66.1-67.2 28.2c-33.1 0-64.9 14.4-88.3 39.9S0 258.9 0 295l0.2 272.4c0 36.1 13.2 70.7 36.6 96.2 23.5 25.5 55.2 39.9 88.3 39.8l774.1-0.6h0.1c69-0.1 124.7-61.1 124.7-136.2l-0.2-272.3zM371.5 540.2c0 2-0.4 3.8-1.4 5.3-1.2 1.7-2.7 3-4.7 3.6-1.8 0.7-3.7 1.2-5.6 1.4-2.2 0.4-4.9 0.6-8.1 0.6-3.5 0-6.2-0.1-8.4-0.6-1.9-0.3-3.7-0.8-5.5-1.4-1.9-0.6-3.5-1.9-4.7-3.6-1-1.5-1.4-3.3-1.4-5.3v-99.9H231.1v99.9c0 2-0.4 3.8-1.4 5.3-1.2 1.7-2.8 3-4.7 3.6-1.9 0.7-3.7 1.2-5.6 1.4-2.2 0.4-5 0.6-8.3 0.6-2.7 0-5.4-0.1-8.1-0.6-2-0.3-3.9-0.7-5.8-1.4-1.9-0.6-3.5-1.9-4.6-3.6-1-1.5-1.4-3.3-1.4-5.3V290c-0.1-1.9 0.4-3.7 1.4-5.3 1.1-1.7 2.7-3 4.6-3.6 1.9-0.6 3.8-1.2 5.8-1.4 2.3-0.4 5-0.6 8.2-0.6 2.7 0 5.5 0.2 8.2 0.6 1.9 0.3 3.8 0.8 5.6 1.4 1.9 0.6 3.5 1.9 4.7 3.6 1 1.6 1.4 3.4 1.4 5.3V401.1h100.6v-111.2c-0.1-1.9 0.4-3.7 1.4-5.3 1.2-1.7 2.7-3 4.7-3.6 1.8-0.6 3.6-1.1 5.6-1.4 2.2-0.4 4.9-0.5 8.4-0.5 2.7-0.1 5.4 0.1 8.1 0.5 1.9 0.3 3.8 0.8 5.6 1.4 1.9 0.6 3.5 1.9 4.7 3.6 1 1.6 1.5 3.5 1.4 5.3V540.2z m257.3-64.8c-4.3 16.9-11.2 31.2-20.2 42.8-9.1 11.5-20.6 20.5-34.2 26.5-13.5 6-29.5 9-47.5 9-18.7 0-35.3-3.3-49.5-9.9-14.2-6.6-26.2-16.2-35.7-28.4-9.8-13-17.1-28.2-21.3-44.5-4.7-17.1-7-36.4-7-57.3-0.3-19.6 1.9-39.2 6.4-58.2 3.7-15.8 10.5-30.5 19.9-43.2 9.2-11.9 20.9-21.1 34.1-26.8 13.5-6 29.8-9.1 48.2-9.1 18.7 0 35.3 3.3 49.5 9.9 13.8 6.3 26 16.2 35.6 28.7 9.8 13.2 17 28.4 21.2 44.8 4.6 17.3 7 36.9 7 58.3 0.1 21.5-2.1 40.8-6.5 57.4z m206.3 47.8c0.6 4.9 0.6 9.8 0 14.6-0.3 2.4-0.8 4.5-1.6 6.1-1.4 3.6-4.7 5.9-8.4 5.9H658.8c-1.7 0-3.4-0.5-4.9-1.5-1.5-1.1-2.8-2.7-3.5-4.6-0.6-1.5-1.2-3.5-1.5-5.8-0.4-2.2-0.5-4.7-0.5-7.5-0.1-2.5 0.1-5 0.5-7.4 0.3-2 0.8-3.8 1.5-5.7 1.5-3.6 4.7-5.9 8.4-5.9H722v-221.6c0-1.9 0.5-3.7 1.5-5.3 1.1-1.7 2.7-3 4.6-3.6s3.8-1.2 5.8-1.4c2.7-0.4 5.4-0.6 8.2-0.5 2.8-0.1 5.6 0.1 8.2 0.5 1.9 0.3 3.8 0.8 5.7 1.4 1.9 0.6 3.5 2 4.6 3.7 1 1.5 1.5 3.3 1.5 5.2V511.6h63.1c1.7 0 3.4 0.5 4.9 1.5 1.5 1 2.7 2.5 3.5 4.2 0.7 1.9 1.3 3.9 1.5 5.9zM578.2 344.7c-5.4-8.9-12.6-16.2-21.4-21.4-8.8-5.2-19.9-7.9-33.1-7.9-13.3 0-24.4 2.4-33.1 7.2-8.6 4.8-15.5 11.6-20.7 20.2-5.2 8.8-9 19.5-11.2 31.8-2.3 12.6-3.5 26.5-3.5 41.4-0.1 13 1.2 25.9 3.7 38.7 2.1 11.2 6.2 21.9 12 31.4 5.5 8.8 12.8 16 21.3 21.2 8.8 5.2 19.7 7.9 32.7 7.9 13.1 0 24.2-2.5 32.8-7.3 8.5-4.7 15.7-11.7 20.9-20.4 5.6-9.6 9.5-20.3 11.4-31.5 2.3-12.3 3.5-25.9 3.5-40.3 0-13.7-1.2-26.9-3.6-39.2-2-11.3-6-22.1-11.7-31.8z"  horiz-adv-x="1024" />

    
    <glyph glyph-name="top_download" unicode="&#58883;" d="M820.3 895.5L203.7 896c-51.4 0-93.2-41.5-93.2-93.2v-837.6c0-51.4 41.6-93.2 93.2-93.2h616.6c51.4 0 93.2 41.6 93.2 93.2V802.8C913.3 854.2 871.7 895.5 820.3 895.5z m20.6-876.2h-660V750.8h660v-731.5zM698.1 353.4H558.4V586.1h-93.1v-232.7H325.6l186.3-186.1 186.2 186.1z"  horiz-adv-x="1024" />

    
    <glyph glyph-name="telegram" unicode="&#58884;" d="M1034.7446993 161.35425738000004c-2.54545893-56.00009615-11.57026781-94.41338528-24.52896775-127.73575652-13.42151065-34.71080341-31.47112844-63.86787828-60.85960863-93.2563585-26.14880523-26.84302131-58.08274435-47.43809798-93.25635848-60.85960864-33.55377665-12.95869993-71.73566037-21.75210347-127.73575651-24.52896772-56.23150149-2.54545893-74.04971396-3.239675-217.05822402-3.23967498s-160.82672244 0.69421609-217.05822395 3.23967498c-56.00009615 2.54545893-94.18197988 11.33886243-127.73575654 24.52896772-34.71080341 13.42151065-63.86787828 31.47112844-93.2563585 60.85960864-29.38848021 29.38848021-47.20669265 58.54555508-60.85960863 93.2563585-12.95869993 33.55377665-21.75210347 71.73566037-24.52896776 127.73575652-2.54545893 56.23150149-3.239675 74.04971396-3.23967496 217.05822397s0.69421609 161.05812781 3.23967496 217.28962937c2.54545893 56.00009615 11.33886243 94.41338528 24.52896776 127.73575653 13.19010528 35.17361411 34.01658734 66.8761479 60.85960863 93.25635846 26.38021061 26.84302131 58.08274435 47.43809798 93.2563585 60.85960867 33.55377665 12.95869993 71.73566037 21.75210347 127.73575654 24.52896773 56.23150149 2.54545893 74.04971396 3.239675 217.05822395 3.23967496s160.82672244-0.69421609 217.05822402-3.23967496c56.00009615-2.54545893 94.41338528-11.33886243 127.96716187-24.52896773 35.17361411-13.19010528 67.10755325-33.78518197 93.25635852-60.85960867 26.84302131-26.38021061 47.43809798-58.08274435 60.85960861-93.25635846 12.95869993-33.32237125 21.75210347-71.73566037 24.52896775-127.73575653 2.54545893-56.23150149 3.239675-74.04971396 3.23967499-217.05822399s-0.92562141-161.05812781-3.47108037-217.28962935zM786.909563 637.5864801800001l-554.67863845-214.04995437c-37.71907303-15.2727535-37.48766768-36.56204626-6.9421607-45.12404446l142.31429398-45.12404443L697.12428485 541.32185203c15.50415885 9.48761958 29.85129091 4.16529643 18.04961778-6.47934997L448.3635271 294.41233711999996l-9.71902496-146.94240108c14.11572674 0 20.82648205 6.71075532 28.69426414 14.80994276l69.19020147 67.10755327 143.93413143-106.21505843c26.38021061-14.57853743 45.58685514-6.94216069 52.29761048 24.76037308l94.41338529 444.99249971c9.48761958 38.41328911-14.80994277 56.23150149-40.26453195 44.66123375zM511.30578391 905.09107175z"  horiz-adv-x="1024" />

    
    <glyph glyph-name="facebook" unicode="&#58885;" d="M1010.44713693 35.04072308000002c-13.42151065-34.71080341-31.47112844-63.86787828-60.85960861-93.25635849-26.14880523-26.84302131-58.08274435-47.43809798-93.25635852-60.85960864-33.55377665-12.95869993-71.73566037-21.75210347-127.73575654-24.52896773-4.39670176-0.23140538-8.33059282-0.23140538-12.26448384-0.46281073V261.35516127000005h136.76056539l20.59507671 157.81845284h-157.58704748v102.74397808c0 45.8182605 12.95869993 77.52079427 78.90922639 77.5207943h83.76873891v143.47132073c-40.72734267 4.16529643-81.45468533 6.47934996-122.41343337 6.24794462-121.25640658 0-204.56233474-74.04971396-204.56233474-210.11606329v-119.86797444H414.80975046V261.35516127000005h137.22337614v-407.73623733h-155.96720998c-46.04966586 0.4628107-66.18193184 1.15702679-101.58695132 2.77686428-56.00009615 2.54545893-94.18197988 11.33886243-127.73575655 24.52896773-34.71080341 13.42151065-63.86787828 31.47112844-93.25635848 60.85960864-29.38848021 29.38848021-47.20669265 58.54555508-60.85960864 93.25635849-11.33886243 29.38848021-19.20664457 62.94225682-22.90913024 108.29770663V616.79378821c3.7024857 45.12404443 11.57026781 78.67782108 22.90913024 107.8348959 13.19010528 35.17361411 34.01658734 66.8761479 60.85960864 93.25635846 26.38021061 26.84302131 58.08274435 47.43809798 93.25635848 60.85960867 33.55377665 12.95869993 71.73566037 21.75210347 127.73575655 24.52896773 56.23150149 2.54545893 74.04971396 3.239675 217.058224 3.239675s160.82672244-0.69421609 217.05822396-3.239675c56.00009615-2.54545893 94.41338528-11.33886243 127.96716189-24.52896773 35.17361411-13.19010528 67.10755325-33.78518197 93.25635848-60.85960867 26.84302131-26.38021061 47.43809798-58.08274435 60.85960866-93.25635846 12.95869993-33.32237125 21.75210347-71.73566037 24.52896773-127.73575655 2.54545893-56.23150149 3.239675-74.04971396 3.239675-217.05822399s-0.69421609-160.82672244-3.239675-217.05822396c-3.00826962-56.00009615-11.80167315-94.41338528-24.76037309-127.73575653zM511.30578391 906.51329397z"  horiz-adv-x="1024" />

    
    <glyph glyph-name="Instagram" unicode="&#58886;" d="M511.30578391 905.09107175c-143.00851003 0-160.82672244-0.69421609-217.05822395-3.23967501-56.00009615-2.54545893-94.41338528-11.33886243-127.73575654-24.52896772-35.17361411-13.19010528-66.8761479-34.01658734-93.2563585-60.85960867-26.84302131-26.38021061-47.43809798-58.08274435-60.85960863-93.25635847-12.95869993-33.32237125-21.98350883-71.73566037-24.52896776-127.73575654-2.54545893-56.23150149-3.239675-74.04971396-3.23967496-217.28962932 0-143.00851003 0.69421609-160.82672244 3.23967496-217.05822399 2.54545893-56.00009615 11.33886243-94.41338528 24.52896776-127.73575652 13.42151065-34.71080341 31.47112844-63.86787828 60.85960863-93.25635849 29.15707487-29.38848021 58.54555508-47.43809798 93.2563585-60.85960866 33.55377665-12.95869993 71.73566037-21.98350883 127.73575654-24.52896772 56.23150149-2.54545893 74.04971396-3.239675 217.05822395-3.23967499s160.82672244 0.69421609 217.05822402 3.23967499c56.00009615 2.54545893 94.41338528 11.33886243 127.73575651 24.52896772 35.17361411 13.19010528 67.10755325 34.01658734 93.25635848 60.85960866 29.38848021 29.38848021 47.20669265 58.54555508 60.85960863 93.25635849 12.95869993 33.55377665 21.75210347 71.73566037 24.52896775 127.73575652 2.54545893 56.23150149 3.239675 74.04971396 3.23967499 217.05822399s-0.69421609 160.82672244-3.23967499 217.05822399c-2.54545893 56.00009615-11.57026781 94.41338528-24.52896775 127.73575651-13.19010528 35.17361411-34.01658734 66.8761479-60.85960863 93.25635851-26.14880523 26.84302131-58.08274435 47.43809798-93.25635848 60.85960863-33.55377665 12.95869993-71.96706573 21.98350883-127.9671619 24.52896773-56.00009615 2.77686427-73.81830858 3.47108034-216.82681863 3.47108036zM792.46329152 722.74365116c34.94220876 0 63.17366221-28.23145343 63.17366221-63.17366217 0-34.94220876-28.23145343-63.17366221-63.17366221-63.17366223s-63.17366221 28.23145343-63.17366219 63.17366223c0 34.71080341 28.46285881 63.17366221 63.17366219 63.17366217z m-280.92610222-73.81830856c149.25645467 0 270.28145588-121.02500123 270.28145586-270.28145587s-121.02500123-270.28145588-270.51286125-270.28145586-270.28145588 121.02500123-270.28145586 270.28145586 121.02500123 270.28145588 270.51286125 270.28145587z m0-94.87619599c-96.95884421 0-175.63666524-78.67782108-175.63666526-175.63666526s78.67782108-175.63666524 175.63666526-175.63666521 175.63666524 78.67782108 175.63666523 175.63666521-78.67782108 175.63666524-175.63666523 175.63666526z"  horiz-adv-x="1024" />

    
    <glyph glyph-name="top_tips" unicode="&#58887;" d="M666.099962 35.59996c3.399999-57.299986-25.199994-111.699973-74.199982-141.399965-49.099988-29.599993-110.499973-29.599993-159.699961 0-49.099988 29.699993-77.599981 84.099979-74.199981 141.399965H128.600094c-25.399994 0-48.099988 15.499996-57.399986 39.099991-9.299998 23.599994-3.199999 50.499988 15.299996 67.699983 74.799982 69.699983 112.199973 131.299968 112.199972 184.799955V529.39984c-0.1 133.899967 86.199979 252.399938 213.399948 293.699928C423.800022 866.199757 463.000012 896.09975 507.700001 895.99975c44.799989-0.1 83.79998-30.299993 95.199977-73.499982 121.69997-40.99999 203.69995-155.199962 203.69995-283.699931v-0.7c-0.3-87.099979 2.799999-153.299963 9.299998-198.599951 8.499998-59.699985 49.499988-125.799969 122.79997-198.099952 17.799996-17.599996 23.299994-44.299989 13.799996-67.399983-9.499998-23.199994-31.999992-38.299991-57.099986-38.299991H666.099962z"  horiz-adv-x="1024" />

    
    <glyph glyph-name="twitter" unicode="&#58888;" d="M1034.7446993 161.35425738000004c-2.54545893-56.00009615-11.57026781-94.41338528-24.52896775-127.73575652-13.42151065-34.71080341-31.47112844-63.86787828-60.85960863-93.2563585-26.14880523-26.84302131-58.08274435-47.43809798-93.25635848-60.85960864-33.55377665-12.95869993-71.73566037-21.75210347-127.73575651-24.52896772-56.23150149-2.54545893-74.04971396-3.239675-217.05822402-3.23967498s-160.82672244 0.69421609-217.05822395 3.23967498c-56.00009615 2.54545893-94.18197988 11.33886243-127.73575654 24.52896772-34.71080341 13.42151065-63.86787828 31.47112844-93.2563585 60.85960864-29.38848021 29.38848021-47.20669265 58.54555508-60.85960863 93.2563585-12.95869993 33.55377665-21.75210347 71.73566037-24.52896776 127.73575652-2.54545893 56.23150149-3.239675 74.04971396-3.23967496 217.05822397s0.69421609 161.05812781 3.23967496 217.28962937c2.54545893 56.00009615 11.33886243 94.41338528 24.52896776 127.73575653 13.19010528 35.17361411 34.01658734 66.8761479 60.85960863 93.25635846 26.38021061 26.84302131 58.08274435 47.43809798 93.2563585 60.85960867 33.55377665 12.95869993 71.73566037 21.75210347 127.73575654 24.52896773 56.23150149 2.54545893 74.04971396 3.239675 217.05822395 3.23967496s160.82672244-0.69421609 217.05822402-3.23967496c56.00009615-2.54545893 94.41338528-11.33886243 127.96716187-24.52896773 35.17361411-13.19010528 67.10755325-33.78518197 93.25635852-60.85960867 26.84302131-26.38021061 47.43809798-58.08274435 60.85960861-93.25635846 12.95869993-33.32237125 21.75210347-71.73566037 24.52896775-127.73575653 2.54545893-56.23150149 3.239675-74.04971396 3.23967499-217.05822399s-0.92562141-161.05812781-3.47108037-217.28962935z m-230.24832926 470.44708886c-24.06615705-15.50415885-49.75215154-26.38021061-77.28938893-32.1653445-24.06615705 28.23145343-53.68604259 42.11577479-88.85965668 42.11577482-33.55377665 0-62.24804078-12.95869993-86.08279249-38.87609981-23.60334631-25.91739987-35.63642485-57.15712295-35.63642484-93.95057455 0-9.95043031 0.92562141-19.90086062 3.00826964-30.31410166-49.75215154 2.77686427-96.26462812 16.4297803-139.76883507 40.95874804-43.50420692 24.52896775-80.52906391 57.15712295-110.84316553 98.11587094-11.10745708-20.59507668-16.66118561-42.80999087-16.66118564-67.10755327 0-22.67772489 4.85951248-43.96701766 14.57853743-63.40506754 9.71902498-19.4380499 22.90913024-35.17361411 39.5703159-47.43809798-19.66945526 0.92562141-37.95047837 6.47934996-55.07447476 16.89259101v-1.61983751c0-32.16534447 9.25621423-60.39679794 27.76864272-84.6943603s41.65296407-39.57031588 69.88441758-45.8182605c-10.64464639-3.00826962-21.28929275-4.39670176-31.93393915-4.3967018-6.94216069 0-14.57853743 0.69421609-22.90913026 2.08264821 7.86778213-26.61161595 21.98350883-48.59512476 42.80999087-65.71912111 20.82648205-17.12399634 44.42982834-25.91739987 70.81003895-26.61161592-44.19842299-37.95047837-94.41338528-56.69431222-150.87629218-56.69431227-10.87605172 0-20.59507668 0.69421609-29.38848018 1.61983749 56.46290689-39.80172123 118.71094764-59.70258188 186.74412232-59.70258184 43.2728016 0 83.76873888 7.4049714 121.48781191 22.44631951 37.95047837 15.04134813 70.34722827 34.94220876 97.19024958 59.93398722 26.84302131 25.22318384 49.9835569 53.91744798 69.42160679 86.54560317 19.4380499 32.62815522 33.78518197 66.64474255 43.50420693 102.28116738 9.48761958 35.63642485 14.34713207 71.0414443 14.34713206 106.67786913 0 7.63637674-0.23140538 13.42151065-0.46281068 17.35540171 23.83475165 18.97523921 44.19842299 41.88436945 61.09101398 68.72739076-23.37194093-11.10745708-46.74388193-17.81821241-70.11582288-20.5950767 26.61161595 17.35540171 44.42982834 41.88436945 53.68604261 73.35549787zM511.30578391 905.09107175z"  horiz-adv-x="1024" />

    


  </font>
</defs>
</svg>
